HIERARCHY
ROOT root
{
  OFFSET 0 90.5966 0
  CHANNELS 6 Xposition Yposition Zposition Zrotation Xrotation Yrotation
  JOINT torso_1
  {
    OFFSET 0 4.93189 -1.1181
    CHANNELS 6 Xposition Yposition Zposition Zrotation Xrotation Yrotation
    JOINT torso_2
    {
      OFFSET 0 5.45428 1.04046
      CHANNELS 6 Xposition Yposition Zposition Zrotation Xrotation Yrotation
      JOINT torso_3
      {
        OFFSET -9.96389e-18 5.81666 0.111686
        CHANNELS 6 Xposition Yposition Zposition Zrotation Xrotation Yrotation
        JOINT torso_4
        {
          OFFSET -1.07264e-17 6.3178 -0.430704
          CHANNELS 6 Xposition Yposition Zposition Zrotation Xrotation Yrotation
          JOINT torso_5
          {
            OFFSET -1.91593e-17 7.38567 -1.4624
            CHANNELS 6 Xposition Yposition Zposition Zrotation Xrotation Yrotation
            JOINT torso_6
            {
              OFFSET -2.45986e-17 9.22288 -0.888062
              CHANNELS 6 Xposition Yposition Zposition Zrotation Xrotation Yrotation
              JOINT torso_7
              {
                OFFSET -2.82008e-17 10.2464 1.53133
                CHANNELS 6 Xposition Yposition Zposition Zrotation Xrotation Yrotation
                JOINT neck_1
                {
                  OFFSET -1.25459e-17 4.64811 0.694664
                  CHANNELS 6 Xposition Yposition Zposition Zrotation Xrotation Yrotation
                  JOINT neck_2
                  {
                    OFFSET -1.75924e-17 4.68175 0.4096
                    CHANNELS 6 Xposition Yposition Zposition Zrotation Xrotation Yrotation
                    JOINT head
                    {
                      OFFSET -1.9515e-17 4.6908 0.74295
                      CHANNELS 6 Xposition Yposition Zposition Zrotation Xrotation Yrotation
                      End Site
                      {
                        OFFSET 0 0.1 0
                      }
                    }
                  }
                }
                JOINT l_shoulder
                {
                  OFFSET 1.19736 -7.38744 7.31601
                  CHANNELS 6 Xposition Yposition Zposition Zrotation Xrotation Yrotation
                  JOINT l_up_arm
                  {
                    OFFSET 12.5803 3.15559 -3.17425
                    CHANNELS 6 Xposition Yposition Zposition Zrotation Xrotation Yrotation
                    JOINT l_low_arm
                    {
                      OFFSET 28.3639 0.0580795 0.133078
                      CHANNELS 6 Xposition Yposition Zposition Zrotation Xrotation Yrotation
                      JOINT l_hand
                      {
                        OFFSET 23.5335 0.0481878 0.110415
                        CHANNELS 6 Xposition Yposition Zposition Zrotation Xrotation Yrotation
                        End Site
                        {
                          OFFSET 0.1 0 0
                        }
                      }
                    }
                  }
                }
                JOINT r_shoulder
                {
                  OFFSET -1.19736 -7.38743 7.31591
                  CHANNELS 6 Xposition Yposition Zposition Zrotation Xrotation Yrotation
                  JOINT r_up_arm
                  {
                    OFFSET -12.5803 3.15559 -3.17425
                    CHANNELS 6 Xposition Yposition Zposition Zrotation Xrotation Yrotation
                    JOINT r_low_arm
                    {
                      OFFSET -28.3639 0.0580795 0.133078
                      CHANNELS 6 Xposition Yposition Zposition Zrotation Xrotation Yrotation
                      JOINT r_hand
                      {
                        OFFSET -23.5335 0.0481876 0.110415
                        CHANNELS 6 Xposition Yposition Zposition Zrotation Xrotation Yrotation
                        End Site
                        {
                          OFFSET -0.1 0 0
                        }
                      }
                    }
                  }
                }
              }
            }
          }
        }
      }
    }
  }
  JOINT l_up_leg
  {
    OFFSET 8.96978 -4.08401 1.97395
    CHANNELS 6 Xposition Yposition Zposition Zrotation Xrotation Yrotation
    JOINT l_low_leg
    {
      OFFSET -0.827718 -37.6515 -0.63625
      CHANNELS 6 Xposition Yposition Zposition Zrotation Xrotation Yrotation
      JOINT l_foot
      {
        OFFSET -2.25899 -39.2341 -5.87393
        CHANNELS 6 Xposition Yposition Zposition Zrotation Xrotation Yrotation
        JOINT l_toes
        {
          OFFSET 0.756579 -9.59872 12.1348
          CHANNELS 6 Xposition Yposition Zposition Zrotation Xrotation Yrotation
          End Site
          {
            OFFSET 0 0 0.1
          }
        }
      }
    }
  }
  JOINT r_up_leg
  {
    OFFSET -8.96978 -4.08401 1.97395
    CHANNELS 6 Xposition Yposition Zposition Zrotation Xrotation Yrotation
    JOINT r_low_leg
    {
      OFFSET 0.827718 -37.6515 -0.63625
      CHANNELS 6 Xposition Yposition Zposition Zrotation Xrotation Yrotation
      JOINT r_foot
      {
        OFFSET 2.25899 -39.2341 -5.87393
        CHANNELS 6 Xposition Yposition Zposition Zrotation Xrotation Yrotation
        JOINT r_toes
        {
          OFFSET -0.756579 -9.59872 12.1348
          CHANNELS 6 Xposition Yposition Zposition Zrotation Xrotation Yrotation
          End Site
          {
            OFFSET 0 0 0.1
          }
        }
      }
    }
  }
}
MOTION
Frames:4
Frame Time:0.020000
0 90.5966 0 -0 0 -0 0 4.93189 -1.1181 -0 0 -0 0 5.45428 1.04046 -0 0 -0 -9.96389e-18 5.81666 0.111686 -0 0 -0 -1.07264e-17 6.3178 -0.430704 -0 0 -0 -1.91593e-17 7.38567 -1.4624 -0 0 -0 -2.45986e-17 9.22288 -0.888062 -0 0 -0 -2.82008e-17 10.2464 1.53133 -0 0 -0 -1.25459e-17 4.64811 0.694664 -0 0 -0 -1.75924e-17 4.68175 0.4096 -0 0 -0 -1.9515e-17 4.6908 0.74295 -0 0 -0 1.19736 -7.38744 7.31601 -0 0 -0 12.5803 3.15559 -3.17425 -0 0 -0 28.3639 0.0580795 0.133078 -0 0 -0 23.5335 0.0481878 0.110415 -0 0 -0 -1.19736 -7.38743 7.31591 -0 0 -0 -12.5803 3.15559 -3.17425 -0 0 -0 -28.3639 0.0580795 0.133078 -0 0 -0 -23.5335 0.0481876 0.110415 -0 0 -0 8.96978 -4.08401 1.97395 -0 0 -0 -0.827718 -37.6515 -0.63625 -0 0 -0 -2.25899 -39.2341 -5.87393 -0 0 -0 0.756579 -9.59872 12.1348 -0 0 -0 -8.96978 -4.08401 1.97395 -0 0 -0 0.827718 -37.6515 -0.63625 -0 0 -0 2.25899 -39.2341 -5.87393 -0 0 -0 -0.756579 -9.59872 12.1348 -0 0 -0 
14.0873 90.4472 47.5043 3.12346 0.643465 48.7582 0 4.93189 -1.1181 -0.305786 -0.0273986 0.875311 0 5.45428 1.04046 -0.624908 0.156186 0.853063 -9.96389e-18 5.81666 0.111686 -0.678084 0.588844 0.872902 -1.07264e-17 6.3178 -0.430704 -0.746457 1.19258 0.853005 -1.91593e-17 7.38567 -1.4624 -0.572054 1.23712 0.951884 -2.45986e-17 9.22288 -0.888062 -0.1934 1.24942 0.989073 -2.82008e-17 10.2464 1.53133 0.00795913 0.145422 -0.0051515 -1.25459e-17 4.64811 0.694664 0.720934 -0.282138 8.11987 -1.75924e-17 4.68175 0.4096 -2.3988 3.09523 3.28442 -1.9515e-17 4.6908 0.74295 -1.65474 7.05899 0.47071 1.19736 -7.38744 7.31601 -3.50211 3.17225 -4.3073 12.5803 3.15559 -3.17425 -83.3716 10.9407 -3.48275 28.3639 0.0580795 0.133078 1.3503 -0.0697875 -6.52114 23.5335 0.0481878 0.110415 0.562688 -7.32749 -3.0635 -1.19736 -7.38743 7.31591 7.33945 4.15501 3.62375 -12.5803 3.15559 -3.17425 77.9758 14.0195 8.53893 -28.3639 0.0580795 0.133078 -2.56744 -0.267019 12.4638 -23.5335 0.0481876 0.110415 0.273961 -23.6136 5.16452 8.96978 -4.08401 1.97395 1.10838 -0.120501 -12.553 -0.827718 -37.6515 -0.63625 0.0845643 -0.315486 0.00573975 -2.25899 -39.2341 -5.87393 -2.08077 2.63531 15.2573 0.756579 -9.59872 12.1348 4.63361e-16 -7.75748e-16 -6.96647e-18 -8.96978 -4.08401 1.97395 -3.88073 1.74532 7.29553 0.827718 -37.6515 -0.63625 0.0637202 0.237804 0.00401912 2.25899 -39.2341 -5.87393 -2.6418 -1.56989 -14.9456 -0.756579 -9.59872 12.1348 -5.80259e-16 -5.66048e-16 -1.27416e-14 
13.9147 90.4546 47.4176 3.18233 0.678276 49.0896 0 4.93189 -1.1181 -0.373192 -0.0580809 0.897145 0 5.45428 1.04046 -0.675576 0.153948 0.859753 -9.96389e-18 5.81666 0.111686 -0.710734 0.635444 0.876019 -1.07264e-17 6.3178 -0.430704 -0.760391 1.3259 0.852913 -1.91593e-17 7.38567 -1.4624 -0.568987 1.40363 0.959791 -2.45986e-17 9.22288 -0.888062 -0.166875 1.44289 0.993655 -2.82008e-17 10.2464 1.53133 0.00934006 0.142396 -0.00394446 -1.25459e-17 4.64811 0.694664 0.713226 -0.105368 8.14016 -1.75924e-17 4.68175 0.4096 -2.4029 3.18159 3.29242 -1.9515e-17 4.6908 0.74295 -1.62146 7.39624 0.477324 1.19736 -7.38744 7.31601 -3.29996 2.97287 -4.26436 12.5803 3.15559 -3.17425 -83.3287 11.3159 -3.94231 28.3639 0.0580795 0.133078 1.36795 -0.071724 -6.60671 23.5335 0.0481878 0.110415 0.569402 -7.46435 -3.15267 -1.19736 -7.38743 7.31591 7.84163 4.20087 3.84036 -12.5803 3.15559 -3.17425 77.6774 13.186 9.20814 -28.3639 0.0580795 0.133078 -2.32995 -0.218339 11.2961 -23.5335 0.0481876 0.110415 0.080729 -23.2281 5.03965 8.96978 -4.08401 1.97395 1.06756 -0.628126 -12.498 -0.827718 -37.6515 -0.63625 -0.0848984 0.316855 -0.00529592 -2.25899 -39.2341 -5.87393 -2.07277 2.67528 15.2532 0.756579 -9.59872 12.1348 4.96962e-17 -7.95139e-16 1.2424e-17 -8.96978 -4.08401 1.97395 -3.94498 1.55596 7.02854 0.827718 -37.6515 -0.63625 0.128306 0.4789 0.00782342 2.25899 -39.2341 -5.87393 -2.65181 -1.59456 -14.947 -0.756579 -9.59872 12.1348 -8.03186e-16 -5.52618e-16 -1.27341e-14 
13.7651 90.4658 47.3042 3.24116 0.721788 49.3874 0 4.93189 -1.1181 -0.426934 -0.100846 0.911747 0 5.45428 1.04046 -0.713825 0.145554 0.861843 -9.96389e-18 5.81666 0.111686 -0.734551 0.681199 0.874988 -1.07264e-17 6.3178 -0.430704 -0.76917 1.46609 0.849092 -1.91593e-17 7.38567 -1.4624 -0.566303 1.58412 0.962578 -2.45986e-17 9.22288 -0.888062 -0.147267 1.6549 0.994063 -2.82008e-17 10.2464 1.53133 0.0104927 0.139091 -0.00267892 -1.25459e-17 4.64811 0.694664 0.706449 0.0141921 8.16784 -1.75924e-17 4.68175 0.4096 -2.42422 3.18433 3.30406 -1.9515e-17 4.6908 0.74295 -1.61531 7.59355 0.471733 1.19736 -7.38744 7.31601 -3.10939 2.77032 -4.2165 12.5803 3.15559 -3.17425 -83.3351 11.6733 -4.39065 28.3639 0.0580795 0.133078 1.38598 -0.0737295 -6.69413 23.5335 0.0481878 0.110415 0.580468 -7.75649 -3.25366 -1.19736 -7.38743 7.31591 8.31472 4.25888 4.04764 -12.5803 3.15559 -3.17425 77.2972 12.6042 9.81487 -28.3639 0.0580795 0.133078 -2.09496 -0.175104 10.1451 -23.5335 0.0481876 0.110415 -0.0515685 -22.7993 4.8351 8.96978 -4.08401 1.97395 0.994708 -1.19825 -12.4815 -0.827718 -37.6515 -0.63625 -0.281722 1.05179 -0.0157731 -2.25899 -39.2341 -5.87393 -2.01986 2.72697 15.2455 0.756579 -9.59872 12.1348 -1.41041e-16 -8.01099e-16 1.83846e-17 -8.96978 -4.08401 1.97395 -4.04682 1.32839 6.73561 0.827718 -37.6515 -0.63625 0.204537 0.763536 0.011965 2.25899 -39.2341 -5.87393 -2.628 -1.62556 -14.9519 -0.756579 -9.59872 12.1348 -7.87091e-16 -5.53121e-16 -1.27351e-14 
